<svg width="561" height="183" viewBox="0 0 561 183" fill="none" xmlns="http://www.w3.org/2000/svg">
<mask id="mask0" mask-type="alpha" maskUnits="userSpaceOnUse" x="0" y="0" width="561" height="183">
<path fill-rule="evenodd" clip-rule="evenodd" d="M0 0H560.602V182.366H0V0Z" fill="white"/>
</mask>
<g mask="url(#mask0)">
<path fill-rule="evenodd" clip-rule="evenodd" d="M442.17 0H419.419C416.894 0 414.855 2.046 414.855 4.564V44.027C414.855 48.099 416.304 51.982 418.723 55.249C421.918 59.541 424.509 64.349 426.462 69.627C429.124 76.836 430.471 84.792 430.471 93.288C430.471 101.151 429.256 108.787 426.857 115.99C424.96 121.664 422.411 126.891 419.263 131.603C418.378 132.938 414.855 137.896 414.855 144.152V146.744C414.855 149.27 416.894 151.313 419.419 151.313H442.17C444.698 151.313 446.738 149.27 446.738 146.744V4.564C446.738 2.046 444.698 0 442.17 0ZM206.545 42.747H187.318C183.746 42.747 180.853 45.638 180.853 49.21V94.617C180.853 98.05 180.638 101.339 180.21 104.483C179.783 107.633 178.889 110.455 177.533 112.947C176.169 115.452 174.206 117.448 171.638 118.95C169.067 120.452 165.704 121.202 161.563 121.202C157.414 121.202 154.235 120.343 152.025 118.625C149.802 116.91 148.169 114.705 147.088 111.981C146.022 109.274 145.376 106.303 145.163 103.09C144.948 99.872 144.846 96.766 144.846 93.767V49.21C144.846 45.638 141.947 42.747 138.374 42.747H115.768C114.069 42.747 112.686 44.126 112.686 45.832V48.776C112.686 50.162 113.155 51.498 113.968 52.614C117.317 57.232 120.073 62.371 122.154 67.988C125.093 75.938 126.58 84.679 126.58 93.977C126.58 102.571 125.242 110.941 122.608 118.836C121.51 122.108 120.202 125.252 118.717 128.25C117.728 130.224 117.915 132.576 119.083 134.442L119.656 135.347C122.445 139.785 126.368 143.252 131.441 145.75C136.517 148.242 143.125 149.496 151.272 149.496C155.128 149.496 158.696 148.996 161.986 147.994C165.279 146.999 168.209 145.709 170.78 144.138C173.351 142.564 175.525 140.78 177.312 138.787C179.098 136.78 180.567 134.776 181.714 132.784H182.146V140.459C182.146 144.031 185.038 146.929 188.607 146.929H206.545C210.113 146.929 213.007 144.031 213.007 140.459V49.21C213.007 45.638 210.113 42.747 206.545 42.747ZM486.007 83.045C486.15 80.475 486.755 78.015 487.832 75.656C488.902 73.298 490.397 71.22 492.328 69.434C494.26 67.649 496.585 66.19 499.301 65.042C502.008 63.896 505.152 63.329 508.731 63.329C514.589 63.329 519.372 65.248 523.091 69.114C526.805 72.97 528.594 77.618 528.446 83.045H486.007ZM557.177 72.332C554.887 65.617 551.639 59.866 547.425 55.075C543.211 50.29 538.058 46.604 531.993 44.04C525.915 41.458 519.159 40.175 511.73 40.175C503.729 40.175 496.189 41.458 489.122 44.04C482.041 46.604 475.895 50.29 470.685 55.075C465.455 59.866 461.357 65.617 458.353 72.332C455.355 79.054 453.853 86.551 453.853 94.84C453.853 103.124 455.355 110.632 458.353 117.337C461.357 124.059 465.455 129.818 470.685 134.603C475.895 139.386 482.041 143.073 489.122 145.636C496.189 148.217 503.729 149.496 511.73 149.496C520.162 149.496 528.303 147.708 536.17 144.138C542.713 141.165 548.319 137.155 552.977 132.096C554.486 130.456 554.251 127.872 552.459 126.559L536.576 114.919C534.73 113.557 532.167 113.838 530.629 115.539C528.524 117.871 526.196 119.87 523.624 121.528C519.986 123.88 515.512 125.069 510.227 125.069C503.94 125.069 498.657 123.242 494.365 119.596C490.081 115.952 487.294 111.059 486.007 104.91H555.903C558.5 104.91 560.603 102.812 560.603 100.212V94.84C560.603 86.551 559.458 79.054 557.177 72.332ZM378.805 113.913C374.309 118.769 367.985 121.202 359.838 121.202C351.691 121.202 345.364 118.769 340.871 113.913C336.366 109.054 334.118 102.697 334.118 94.84C334.118 86.978 336.366 80.62 340.871 75.757C345.364 70.902 351.691 68.474 359.838 68.474C367.985 68.474 374.309 70.902 378.805 75.757C383.307 80.62 385.562 86.978 385.562 94.84C385.562 102.697 383.307 109.054 378.805 113.913ZM414.067 72.332C411.638 65.762 408.182 60.079 403.668 55.286C399.172 50.502 393.777 46.792 387.494 44.137C381.203 41.5 374.193 40.175 366.485 40.175C362.768 40.175 359.268 40.681 355.982 41.673C352.686 42.67 349.659 43.967 346.872 45.531C344.079 47.112 341.649 48.855 339.583 50.784C337.509 52.716 335.831 54.604 334.546 56.468H334.118V47.309C334.118 44.791 332.071 42.747 329.55 42.747H309.097C306.576 42.747 304.528 44.791 304.528 47.309V177.8C304.528 180.327 306.576 182.366 309.097 182.366H332.118C334.643 182.366 336.69 180.327 336.69 177.8V135.784H337.118C340.831 140.787 345.583 144.318 351.367 146.396C357.157 148.458 363.408 149.496 370.122 149.496C377.555 149.496 384.197 147.956 390.062 144.887C395.919 141.818 400.892 137.714 404.96 132.562C409.031 127.421 412.176 121.528 414.391 114.878C416.605 108.235 417.717 101.265 417.717 93.977C417.717 86.124 416.494 78.909 414.067 72.332ZM294.108 40.469L293.17 40.39C291.315 40.247 289.455 40.175 287.602 40.175C280.454 40.175 274.524 41.777 269.805 44.999C265.09 48.209 261.018 53.035 257.586 59.466H257.162V47.302C257.162 44.791 255.115 42.747 252.59 42.747H229.569C227.049 42.747 225.003 44.791 225.003 47.302V142.366C225.003 144.887 227.049 146.929 229.569 146.929H252.59C255.115 146.929 257.162 144.887 257.162 142.366V103.41C257.162 98.267 257.446 93.548 258.02 89.259C258.586 84.978 259.841 81.301 261.765 78.223C263.7 75.149 266.443 72.758 270.025 71.046C273.596 69.326 278.457 68.467 284.602 68.467C287.027 68.467 289.345 68.648 291.565 69.006L293.021 69.247C295.796 69.693 298.318 67.554 298.318 64.737V45.013C298.318 42.633 296.485 40.645 294.108 40.469ZM74.274 113.913C69.775 118.769 63.452 121.202 55.301 121.202C47.156 121.202 40.838 118.769 36.334 113.913C31.832 109.054 29.58 102.697 29.58 94.84C29.58 86.978 31.832 80.62 36.334 75.757C40.838 70.902 47.156 68.474 55.301 68.474C63.452 68.474 69.775 70.902 74.274 75.757C78.781 80.62 81.027 86.978 81.027 94.84C81.027 102.697 78.781 109.054 74.274 113.913ZM99.139 55.286C94.634 50.502 89.245 46.792 82.957 44.137C76.668 41.5 69.667 40.175 61.95 40.175C58.236 40.175 54.731 40.681 51.445 41.673C48.154 42.67 45.124 43.967 42.335 45.531C39.549 47.112 37.119 48.855 35.048 50.784C32.978 52.716 31.299 54.604 30.011 56.468H29.58V47.309C29.58 44.791 27.54 42.747 25.015 42.747H4.557C2.04 42.747 0 44.791 0 47.309V177.8C0 180.327 2.04 182.366 4.557 182.366H27.586C30.104 182.366 32.154 180.327 32.154 177.8V135.784H32.579C36.296 140.787 41.05 144.318 46.841 146.396C52.623 148.458 58.872 149.496 65.595 149.496C73.023 149.496 79.669 147.956 85.535 144.887C91.389 141.818 96.354 137.714 100.425 132.562C104.497 127.421 107.645 121.528 109.858 114.878C112.074 108.235 113.179 101.265 113.179 93.977C113.179 86.124 111.966 78.909 109.539 72.332C107.11 65.762 103.643 60.079 99.139 55.286Z" fill="#45166A"/>
</g>
</svg>
